<?xml version="1.0" encoding="UTF-8"?>
<svg id="Layer_2" data-name="Layer 2" xmlns="http://www.w3.org/2000/svg" viewBox="0 0 620.13 611.61">
  <defs>
    <style>
      .cls-1 {
        stroke-width: 0px;
      }

      .cls-2 {
        fill: none;
        stroke: #000;
        stroke-linecap: round;
        stroke-miterlimit: 10;
        stroke-width: 8px;
      }
    </style>
  </defs>
  <path class="cls-2" d="M84.28,308.85c-.24-128.77,106.98-232.11,230.67-228.67,117.69,3.28,216.21,102.29,218,224.67"/>
  <path class="cls-2" d="M117.61,423.52c3.52,5.64,69.65,107.4,193.33,106,120.94-1.36,184.59-100.09,188.67-106.67"/>
  <path class="cls-2" d="M252.91,281.55c10,2.67,21.96-12.22,26.67-30.67,8.67-34,25.43-50.43,47.33-48,20.32,2.25,36.26,20.18,34.39,22.53-1.21,1.51-19.11,6.85-19.5,31.62-.19,11.96,6.8,19.04,20.52,29.03"/>
  <path class="cls-1" d="M215.47,377.54c-.16-8.29-.01-16.94-.07-25.23-.03-3.72,0-7.58.05-11.3.08-4.73.26-9.49-.05-14.2-.3-4.53-2.98-7.65-5.82-7.04-3.84.83-4.47,4.06-4.45,7.54.02,4.74,0,9.47,0,14.21,0,12.85.02,25.71,0,38.56-.03,12.47,6.17,21.44,16.37,26.65,7.6,3.88,16.3,5.41,24.99,2.78,10.48-3.18,20.59-14.06,20.72-26.88.18-18.1.61-36.2.95-54.29.06-3.28-.37-6.31-3.46-8.11-2.55-1.49-6.45-.23-7.32,2.55-.61,1.93-.98,4.04-1,6.07-.08,14.38-.01,28.75-.07,43.13-.01,3.55.24,7.24-.57,10.63-3.3,13.86-18.1,20.4-30.43,13.73-6.35-3.44-7.37-7.86-9.36-16.24-.2-.84-.33-1.69-.49-2.54"/>
  <path class="cls-1" d="M60.89,319.69c-3.51-.07-4.43,1.95-5.43,4.56-7.53,19.8-15.07,39.59-22.64,59.37-2.37,6.17-4.81,12.31-7.32,18.66-.97,2.46-.5,5.4,1.43,7.15.01.01.02.02.03.03,2.52,2.26,5.01,2.52,6.85-.98.7-1.33,1.4-2.67,1.96-4.06,5.6-13.69,11.32-27.33,16.68-41.12,2.36-6.07,7.39-18.96,7.39-18.96h0c1.74-1.11,2.71,3.03,3.44,4.81,2.47,6.01,4.64,12.16,6.96,18.24,4.58,12.01,9,24.1,13.9,35.97,1.42,3.45,3.37,7.4,9.01,6.81,3.76-1.72,3.74-5.16,2.22-9.31-7.44-20.28-14.76-40.59-22.2-60.87-1.82-4.96-4.54-11.45-6.31-16.43-1.02-2.87-3.95-4.03-5.97-3.87"/>
  <path class="cls-1" d="M312.73,319.1c-3.51-.07-4.43,1.95-5.43,4.56-7.53,19.8-15.07,39.59-22.64,59.37-2.37,6.17-4.81,12.31-7.32,18.66-.97,2.46-.5,5.4,1.43,7.15.01.01.02.02.03.03,2.52,2.26,5.01,2.52,6.85-.98.7-1.33,1.4-2.67,1.96-4.06,5.6-13.69,11.32-27.33,16.68-41.12,2.36-6.07,7.39-18.96,7.39-18.96h0c1.74-1.11,2.71,3.03,3.44,4.81,2.47,6.01,4.64,12.16,6.96,18.24,4.58,12.01,9,24.1,13.9,35.97,1.42,3.45,3.37,7.4,9.01,6.81,3.76-1.72,3.74-5.16,2.22-9.31-7.44-20.28-14.76-40.59-22.2-60.87-1.82-4.96-4.54-11.45-6.31-16.43-1.02-2.87-3.95-4.03-5.97-3.87"/>
  <path class="cls-1" d="M429.56,365.82c-.16,7.61-.03,11.9-.19,19.51,0,.34-.02,5.22,0,5.55.32,5.58,0,8.47.23,14.06.15,3.72,1.61,6.12,5.44,6.04,3.4-.07,5.94-3.44,5.9-7.57-.13-12.01-.45-24.02-.44-36.03,0-13.02.36-26.05.39-39.07,0-2.2-.28-5.02-1.58-6.42-1.35-1.45-4.23-2.34-6.19-2-2.52.45-3.52,3.05-3.51,5.88.06,12.01.03,24.02,0,36.03,0,.68,0,5.58-.17,6.26"/>
  <path class="cls-1" d="M528.6,324.95c1.29,5.06,9.48,6.43,15.11,6.45,9.52.02,19.16-.18,28.68-.05,4.27.06,8.54.08,12.8-.04,1.16-.03,2.68-.11,3.67-.78,1.94-1.29,4.09-3.58,3.2-6.78-.89-3.2-3.4-4.42-6.37-4.54-3.6-.15-7.22.04-10.83-.05-11.98-.3-23.96-.74-35.94-.97-7.49-.15-10.32,4.11-10.32,6.76"/>
  <path class="cls-1" d="M535.53,399.34c-4.68.33-7.31,2.87-6.96,6.1.36,3.33,4.21,5.7,8.37,5.62,8.37-.14,16.74-.11,25.11-.02,7.71.08,15.43.42,23.14.45,3.67.01,6.87-2.78,6.89-5.54.03-3.68-3.06-6.56-7.38-6.58-14.6-.06-29.21-.02-43.82-.02h-4.92"/>
  <path class="cls-1" d="M533.5,365.69c.98,4.3,5.18,5.27,9.35,5.32,11.98.14,25.08.75,37.06.89,1.96.02,3.5-1,4.73-2.07,1.51-1.3,3.65-3.5,2.53-6.51-1.14-3.06-3.14-4.64-6.41-4.58-11.98.21-23.97.7-35.93.37-5.36-.15-11.68-.04-11.33,6.57"/>
  <path class="cls-1" d="M413.38,410.52c-3.33.32-6.13-1.02-7.92-4.03-4.29-7.19-9.31-14.37-12.99-21.45-3.75-8.91-9.53-11.15-17.98-10.11-4.09.5-5.81,1.81-5.88,6.16-.08,4.9.02,9.81-.03,14.71-.05,5.24-1.55,9.68-5.66,12.84-1.1.85-2.68.56-3.5-.58-1.62-2.25-1.66-5-1.63-7.7.08-8.46.46-16.91.43-25.37-.05-16.24-.44-32.47-.38-48.71.02-5.49,1.98-7.03,7.3-7.09,6.56-.07,13.14-.3,19.69.1,3.65.22,7.38,1.16,10.81,2.49,20.17,7.83,20.65,36.09,7.42,47.13-1.08.9-2.11,1.86-3.1,2.79-.74.69-1.03,1.77-.75,2.76.12.42.23.74.41,1.02,4.9,7.8,9.83,15.57,14.75,23.35,3.58,5.66,3.51,8.96-.98,11.67M390.24,362.82c5.49-3.21,10.13-7.32,10.76-14.21.83-9.13-6.95-17.75-16.18-18.23-3.93-.2-7.88,0-11.81-.04-3.02-.03-4.45,1.46-4.44,4.57.03,8.12.07,16.24-.02,24.35-.03,2.94,1.34,4.12,3.97,4.05,4.1-.12,8.2-.39,12.31-.46,1.64-.03,3.94.03,5.41-.03"/>
  <path class="cls-1" d="M187.41,392.25c2.13,2.88,3.81,6.23,5.9,9.14,1.91,2.67,2.67,5.59-.04,8.05-2.4,2.18-5.25,2.68-7.81.04-1.56-1.6-2.98-3.36-4.44-5.06-2.14-2.48-4.19-3.07-6.96-.58-2.13,1.91-4.79,3.25-7.33,4.62-10.47,5.65-21.1,3.89-31.47-.05-11.66-4.43-20.67-12.77-25.4-24.38-5.8-14.22-4.76-28.73,2.69-42.55,6.33-11.75,16.32-18.52,28.63-20.56,14.79-2.46,28.81.42,40.34,11.44,6.85,6.54,11.61,14.64,13.02,23.9,1.2,7.82,1.04,16.11-2.19,23.81-1.69,4.04-3.29,8.11-4.93,12.17M148.52,329.33c-11.6,1.75-21.04,7.23-27.01,17.8-6.26,11.07-6.3,22.84-.43,33.89,9.36,17.64,24.5,21.68,42.69,16.23,2.43-.73,4.4-2.14,5.18-5.45.56-2.35,3.01-5.1,5.24-5.97,7.35-2.87,9.33-9.32,10.14-15.93,2.07-16.94-8.45-33.16-24.5-38.48-3.46-1.15-7.64-2.37-11.1-2.1"/>
  <path class="cls-1" d="M459.16,319.18c4.43,0,8.87-.14,13.29.03,12.22.46,23.36,2.83,33.2,11.91,10.45,9.64,14.61,21.29,14.38,34.74-.24,13.85-8.83,29.45-15.13,34.74-3.88,4.16-10.26,8.23-16.7,8.75-9.32.76-18.69,1.28-28.05,1.63-5.66.21-7.87-2.23-7.87-8.07-.01-25.03-.01-50.06,0-75.1,0-5.76,1.24-8.21,6.89-8.63M466.55,330.35c-2.07.56-2.82,2.47-2.85,4.06-.15,20.63-.11,41.27-.08,61.9-.01.5.05,1.03.2,1.51.27.89,1.05,1.52,1.94,1.61,9.5,1.02,20.31.87,29.28-6.25,12.55-9.96,17.01-24.22,11.16-40.43-2.99-8.27-8.64-14.69-17.35-18.69-7.45-3.42-14.68-3.71-22.3-3.72"/>
</svg>